<svg viewBox="0 0 2081 387" version="1.1" xmlns="http://www.w3.org/2000/svg" xmlns:xlink="http://www.w3.org/1999/xlink" xml:space="preserve" style="fill-rule:evenodd;clip-rule:evenodd;stroke-linejoin:round;stroke-miterlimit:2;">
    <g transform="matrix(1,0,0,1,0,-7.74e-06)">
        <g transform="matrix(1,0,0,1,0,-1.34166)">
            <g transform="matrix(4.16667,0,0,4.16667,0,0)">
                <path d="M41.263,75.644C43.228,75.644 45.193,75.316 46.83,74.989C48.467,74.661 50.105,74.006 51.415,73.024C52.725,72.041 53.707,71.059 54.69,69.422C55.345,67.784 56,65.819 56,63.527C56,58.942 54.69,55.667 52.07,53.375C49.45,51.41 45.848,50.427 41.59,50.427L19.976,50.427L19.976,75.644L41.263,75.644ZM40.28,37C43.883,37 46.83,36.018 49.122,34.381C51.415,32.743 52.397,29.796 52.397,26.193C52.397,24.228 52.07,22.264 51.415,20.954C50.76,19.644 49.777,18.661 48.467,17.679C47.157,17.024 45.848,16.369 44.21,16.041C42.573,15.714 40.935,15.714 38.97,15.714L19.976,15.714L19.976,37L40.28,37ZM42.9,0.322C47.157,0.322 51.087,0.65 54.69,1.632C58.292,2.287 61.239,3.597 63.859,5.234C66.479,6.872 68.444,9.164 69.754,12.112C71.064,15.059 71.719,18.661 71.719,22.591C71.719,27.176 70.736,31.106 68.444,34.053C66.479,37 63.204,39.62 59.274,41.585C64.842,43.223 69.099,46.17 71.719,50.1C74.339,54.03 75.976,58.942 75.976,64.509C75.976,69.094 74.994,73.024 73.356,76.299C71.719,79.574 69.099,82.521 66.152,84.486C63.204,86.451 59.602,88.088 55.672,89.071C51.742,90.053 47.812,90.708 43.883,90.708L0,90.708L0,0.322L42.9,0.322Z" style="fill:rgb(193,193,193);fill-rule:nonzero;"/>
            </g>
        </g>
        <g transform="matrix(1,0,0,1,0,-1.34166)">
            <g transform="matrix(4.16667,0,0,4.16667,0,0)">
                <path d="M125.099,40.93C122.807,38.638 119.205,37.328 114.947,37.328C112,37.328 109.708,37.983 107.743,38.965C105.778,39.948 104.468,41.258 103.158,42.568C101.848,43.878 101.193,45.515 100.866,47.152C100.538,48.79 100.211,50.1 100.211,51.41L129.684,51.41C129.029,46.497 127.392,43.223 125.099,40.93ZM104.468,75.316C107.088,77.936 111.018,79.246 116.257,79.246C119.86,79.246 123.135,78.264 125.754,76.626C128.373,74.661 130.011,72.696 130.667,70.731L146.713,70.731C144.094,78.591 140.164,84.158 134.924,87.761C129.684,91.036 123.462,93 115.93,93C110.69,93 106.105,92.018 101.848,90.381C97.59,88.743 94.315,86.451 91.368,83.176C88.421,80.229 86.128,76.626 84.818,72.369C83.181,68.112 82.526,63.527 82.526,58.287C82.526,53.375 83.181,48.79 84.818,44.533C86.456,40.275 88.748,36.673 91.695,33.398C94.643,30.451 98.245,27.831 102.175,26.193C106.433,24.556 110.69,23.574 115.93,23.574C121.497,23.574 126.409,24.556 130.667,26.848C134.924,29.141 138.199,31.761 140.819,35.691C143.439,39.293 145.404,43.55 146.713,48.135C147.368,52.72 147.696,57.305 147.368,62.544L99.883,62.544C99.883,67.784 101.848,72.696 104.468,75.316Z" style="fill:rgb(193,193,193);fill-rule:nonzero;"/>
            </g>
        </g>
        <g transform="matrix(1,0,0,1,0,-1.34166)">
            <g transform="matrix(4.16667,0,0,4.16667,0,0)">
                <path d="M172.912,0.322L172.912,34.381L173.24,34.381C175.532,30.451 178.48,27.831 182.082,26.193C185.684,24.556 188.959,23.574 192.561,23.574C197.474,23.574 201.404,24.228 204.351,25.538C207.298,26.848 209.918,28.813 211.556,31.106C213.193,33.398 214.503,36.345 215.158,39.62C215.813,42.895 216.14,46.497 216.14,50.755L216.14,91.036L198.129,91.036L198.129,54.03C198.129,48.462 197.146,44.533 195.509,41.913C193.871,39.293 190.924,37.983 186.667,37.983C181.754,37.983 178.152,39.62 176.187,42.24C173.895,45.188 172.912,50.1 172.912,56.65L172.912,91.036L154.901,91.036L154.901,0.322L172.912,0.322Z" style="fill:rgb(193,193,193);fill-rule:nonzero;"/>
            </g>
        </g>
        <g transform="matrix(1,0,0,1,0,-1.34166)">
            <g transform="matrix(4.16667,0,0,4.16667,0,0)">
                <path d="M264.936,60.579C263.953,60.907 262.643,61.234 261.333,61.562C260.023,61.889 258.713,61.889 257.075,62.217C255.766,62.544 254.129,62.544 252.819,62.872C251.509,63.199 250.199,63.527 248.889,63.854C247.579,64.182 246.269,64.837 245.614,65.492C244.632,66.147 243.977,67.129 243.322,68.112C242.339,69.422 242.339,70.731 242.339,72.369C242.339,74.006 242.667,75.316 243.322,76.299C243.977,77.281 244.632,78.264 245.614,78.919C246.597,79.574 247.906,79.901 249.216,80.229C250.526,80.556 251.836,80.556 253.474,80.556C257.075,80.556 259.696,79.901 261.661,78.919C263.626,77.609 264.936,76.299 265.918,74.661C266.901,73.024 267.556,71.386 267.556,69.749C267.883,68.112 267.883,66.802 267.883,65.819L267.883,58.942C266.901,59.597 265.918,60.252 264.936,60.579ZM229.24,35.036C231.205,32.088 233.497,30.123 236.444,28.158C239.392,26.521 242.667,25.211 246.269,24.556C249.871,23.901 253.474,23.574 257.075,23.574C260.351,23.574 263.626,23.901 267.228,24.228C270.503,24.556 273.778,25.538 276.398,26.848C279.345,28.158 281.31,30.123 283.275,32.416C284.912,34.708 285.895,37.983 285.895,41.913L285.895,76.299C285.895,79.246 286.222,82.193 286.55,84.813C286.877,87.433 287.86,89.726 288.842,91.036L270.503,91.036C269.848,90.381 269.52,89.071 269.193,88.088C268.866,87.106 268.866,85.796 268.866,84.813C265.918,87.761 262.643,89.726 258.713,91.036C254.784,92.345 250.854,92.673 246.924,92.673C243.649,92.673 241.029,92.345 238.082,91.363C235.462,90.708 233.17,89.398 230.877,87.761C228.912,86.123 227.275,84.158 225.965,81.538C224.982,78.919 224.328,76.299 224.328,72.696C224.328,69.094 224.982,65.819 226.292,63.527C227.602,61.234 229.24,59.269 231.205,57.632C233.17,56.322 235.79,55.012 238.409,54.357C241.029,53.702 243.649,53.047 246.597,52.72C249.216,52.392 251.836,52.065 254.456,51.737C257.075,51.41 259.368,51.082 261.333,50.755C263.298,50.1 264.936,49.445 266.246,48.462C267.556,47.48 267.883,46.17 267.883,44.205C267.883,42.24 267.556,40.603 266.901,39.62C266.246,38.638 265.263,37.655 264.281,37C263.298,36.345 261.988,36.018 260.678,35.691C259.368,35.363 257.73,35.363 256.094,35.363C252.491,35.363 249.871,36.018 247.906,37.655C245.942,39.293 244.632,41.913 244.304,45.188L226.292,45.188C226.292,41.258 227.602,37.655 229.24,35.036Z" style="fill:rgb(193,193,193);fill-rule:nonzero;"/>
            </g>
        </g>
        <g transform="matrix(1,0,0,1,0,-1.34166)">
            <g transform="matrix(4.16667,0,0,4.16667,0,0)">
                <path d="M313.076,25.211L313.076,34.381L313.404,34.381C315.696,30.451 318.643,27.831 322.246,26.193C325.848,24.556 329.778,23.574 333.38,23.574C338.292,23.574 342.222,24.228 345.17,25.538C348.444,26.848 350.737,28.813 352.374,31.106C354.012,33.398 355.322,36.345 356.304,39.62C356.959,42.895 357.287,46.497 357.287,50.755L357.287,91.036L339.275,91.036L339.275,54.03C339.275,48.462 338.292,44.533 336.655,41.913C335.018,39.293 332.07,37.655 327.485,37.655C322.573,37.655 318.971,39.62 316.678,42.568C314.386,45.515 313.404,50.427 313.404,56.977L313.404,91.363L295.392,91.363L295.392,25.211L313.076,25.211Z" style="fill:rgb(193,193,193);fill-rule:nonzero;"/>
            </g>
        </g>
        <g transform="matrix(1,0,0,1,0,-1.34166)">
            <g transform="matrix(4.16667,0,0,4.16667,0,0)">
                <path d="M397.567,37C394.62,37 392.328,37.655 390.363,38.965C388.398,40.275 386.76,41.913 385.45,44.205C384.14,46.17 383.485,48.462 382.83,51.082C382.175,53.702 382.175,55.995 382.175,58.614C382.175,60.907 382.503,63.527 382.83,65.819C383.485,68.439 384.14,70.404 385.45,72.369C386.76,74.334 388.07,75.971 390.035,77.281C392,78.591 394.292,79.246 397.24,79.246C401.497,79.246 404.772,77.936 407.392,75.644C409.684,73.351 411.322,70.076 411.649,65.819L429.006,65.819C427.696,74.661 424.421,81.211 418.854,85.796C413.287,90.381 406.082,92.673 397.24,92.673C392.328,92.673 387.743,91.69 383.813,90.053C379.556,88.416 376.281,86.123 373.333,83.176C370.386,80.229 368.094,76.626 366.456,72.696C364.819,68.439 364.164,64.182 364.164,59.269C364.164,54.03 364.819,49.445 366.456,45.188C368.094,40.93 370.059,37 373.006,33.726C375.953,30.451 379.556,28.158 383.485,26.193C387.743,24.556 392.328,23.574 397.567,23.574C401.497,23.574 405.099,24.228 408.702,25.211C412.304,26.193 415.579,27.831 418.199,29.796C421.146,31.761 423.439,34.381 425.076,37.655C426.714,40.603 427.696,44.533 428.023,48.79L410.339,48.79C409.684,40.93 405.427,37 397.567,37Z" style="fill:rgb(193,193,193);fill-rule:nonzero;"/>
            </g>
        </g>
        <g transform="matrix(1,0,0,1,0,-1.34166)">
            <g transform="matrix(4.16667,0,0,4.16667,0,0)">
                <rect x="96.28" y="6.544" width="36.679" height="8.842" style="fill:rgb(193,193,193);"/>
            </g>
        </g>
        <g transform="matrix(1,0,0,1,0,-1.34166)">
            <g transform="matrix(4.16667,0,0,4.16667,0,0)">
                <path d="M477.146,40.93C474.854,38.638 471.251,37.328 466.994,37.328C464.047,37.328 461.754,37.983 459.789,38.965C457.825,39.948 456.187,41.258 455.205,42.568C454.222,43.878 453.24,45.515 452.912,47.152C452.585,48.79 452.257,50.1 452.257,51.41L481.731,51.41C480.749,46.497 479.111,43.223 477.146,40.93ZM456.187,75.316C458.807,77.936 463.064,79.246 467.977,79.246C471.579,79.246 474.854,78.264 477.474,76.626C480.094,74.661 481.731,72.696 482.386,70.731L498.105,70.731C495.485,78.591 491.556,84.158 486.316,87.761C481.076,91.036 474.854,93 467.322,93C462.082,93 457.497,92.018 453.24,90.381C448.982,88.743 445.708,86.451 442.76,83.176C439.813,80.229 437.52,76.626 436.211,72.369C434.573,68.112 433.918,63.527 433.918,58.287C433.918,53.375 434.573,48.79 436.211,44.533C437.848,40.275 440.14,36.673 443.088,33.398C446.035,30.451 449.637,27.831 453.567,26.193C457.825,24.556 462.409,23.574 467.322,23.574C472.889,23.574 477.801,24.556 481.731,26.848C485.988,29.141 489.263,31.761 491.883,35.691C494.503,39.293 496.468,43.55 497.778,48.135C499.088,52.72 499.415,57.632 499.088,62.872L451.602,62.872C451.602,67.784 453.567,72.696 456.187,75.316Z" style="fill:rgb(193,193,193);fill-rule:nonzero;"/>
            </g>
        </g>
    </g>
</svg>
