<svg viewBox="0 0 2104 176" version="1.1" xmlns="http://www.w3.org/2000/svg" xmlns:xlink="http://www.w3.org/1999/xlink" xml:space="preserve" style="fill-rule:evenodd;clip-rule:evenodd;stroke-linejoin:round;stroke-miterlimit:2;">
    <g transform="matrix(1,0,0,1,-1428.76,-788.989)">
        <g transform="matrix(1,0,0,1,4.54747e-13,-876.969)">
            <g transform="matrix(4.16667,0,0,4.16667,-2589.8,-4389.04)">
                <path d="M1337.24,1487.41C1341.47,1487.41 1344.84,1486.23 1347.35,1483.88C1349.86,1481.53 1351.12,1478.34 1351.12,1474.32C1351.12,1470.29 1349.86,1467.11 1347.35,1464.75C1344.84,1462.4 1341.47,1461.22 1337.24,1461.22L1328.31,1461.22L1328.31,1487.41L1337.24,1487.41ZM1318.54,1453.2L1337.73,1453.2C1342.31,1453.2 1346.36,1454.07 1349.88,1455.82C1353.4,1457.58 1356.14,1460.04 1358.09,1463.21C1360.04,1466.39 1361.01,1470.09 1361.01,1474.32C1361.01,1478.54 1360.04,1482.24 1358.09,1485.42C1356.14,1488.6 1353.4,1491.06 1349.88,1492.81C1346.36,1494.56 1342.31,1495.43 1337.73,1495.43L1318.54,1495.43L1318.54,1453.2Z" style="fill:white;fill-rule:nonzero;"/>
            </g>
            <g transform="matrix(4.16667,0,0,4.16667,-2275.48,-4389.04)">
                <path d="M1156.03,1495.43L1166.29,1495.43L1147.4,1453.2L1137.75,1453.2L1118.92,1495.43L1128.94,1495.43L1131.58,1489.05L1131.59,1489.03L1132.68,1486.38L1132.69,1486.38L1138.44,1472.64L1142.52,1462.79L1145.21,1469.3L1152.29,1486.38L1153.08,1488.31L1153.14,1488.45L1156.03,1495.43Z" style="fill:white;fill-rule:nonzero;"/>
            </g>
            <g transform="matrix(4.16667,0,0,4.16667,-3233.41,-4389.04)">
                <path d="M1156.03,1495.43L1166.29,1495.43L1147.4,1453.2L1137.75,1453.2L1118.92,1495.43L1128.94,1495.43L1131.58,1489.05L1131.59,1489.03L1132.68,1486.38L1132.69,1486.38L1138.44,1472.64L1142.52,1462.79L1145.21,1469.3L1152.29,1486.38L1153.08,1488.31L1153.14,1488.45L1156.03,1495.43Z" style="fill:white;fill-rule:nonzero;"/>
            </g>
            <g transform="matrix(4.16667,0,0,4.16667,-2621.05,-4388.96)">
                <rect x="1387.55" y="1453.18" width="31.92" height="7.84" style="fill:white;fill-rule:nonzero;"/>
                <path d="M1397.27,1487.57L1397.27,1477.79L1416.88,1477.79L1416.88,1470.19L1387.55,1470.19L1387.55,1495.41L1420.25,1495.41L1420.25,1487.57L1397.27,1487.57Z" style="fill:white;fill-rule:nonzero;"/>
            </g>
            <g transform="matrix(4.16667,0,0,4.16667,-3867.69,-4388.96)">
                <rect x="1387.55" y="1453.18" width="31.92" height="7.84" style="fill:white;fill-rule:nonzero;"/>
                <path d="M1397.27,1487.57L1397.27,1477.79L1416.88,1477.79L1416.88,1470.19L1387.55,1470.19L1387.55,1495.41L1420.25,1495.41L1420.25,1487.57L1397.27,1487.57Z" style="fill:white;fill-rule:nonzero;"/>
            </g>
            <g transform="matrix(4.16667,0,0,4.16667,-5763.61,-4389.04)">
                <path d="M1792.58,1453.2L1802.35,1453.2L1802.35,1487.47L1823.53,1487.47L1823.53,1495.43L1792.58,1495.43L1792.58,1453.2Z" style="fill:white;fill-rule:nonzero;"/>
            </g>
            <g transform="matrix(4.16667,0,0,4.16667,-5357.22,-4389.04)">
                <path d="M1963.68,1453.2L1963.68,1495.43L1955.66,1495.43L1934.6,1469.79L1934.6,1495.43L1924.95,1495.43L1924.95,1453.2L1933.03,1453.2L1954.03,1478.84L1954.03,1453.2L1963.68,1453.2Z" style="fill:white;fill-rule:nonzero;"/>
            </g>
            <g transform="matrix(4.16667,0,0,4.16667,-8647.27,-4389.04)">
                <path d="M2617.82,1495.43L2607.63,1480.77L2597.61,1495.43L2586.39,1495.43L2602.02,1473.96L2587.17,1453.2L2598.27,1453.2L2607.99,1466.9L2617.52,1453.2L2628.08,1453.2L2613.36,1473.59L2629.11,1495.43L2617.82,1495.43Z" style="fill:white;fill-rule:nonzero;"/>
            </g>
            <g transform="matrix(4.16667,0,0,4.16667,-5775.38,-4389.04)">
                <path d="M2224.26,1481.86C2227.04,1480.65 2229.18,1478.91 2230.69,1476.64C2232.2,1474.37 2232.95,1471.66 2232.95,1468.52C2232.95,1465.39 2232.21,1462.67 2230.72,1460.38C2229.23,1458.09 2227.11,1456.32 2224.36,1455.07C2221.6,1453.82 2218.35,1453.2 2214.61,1453.2L2196.33,1453.2L2196.33,1461.19L2206.11,1461.19L2206.11,1461.16L2214.07,1461.16C2217.01,1461.16 2219.24,1461.8 2220.77,1463.06C2222.3,1464.33 2223.06,1466.15 2223.06,1468.52C2223.06,1470.86 2222.3,1472.67 2220.77,1473.96C2219.24,1475.24 2217.01,1475.88 2214.07,1475.88L2196.33,1475.88L2196.33,1495.43L2206.11,1495.43L2206.11,1483.67L2215.1,1483.67L2223.24,1495.43L2233.74,1495.43L2224.26,1481.86Z" style="fill:white;fill-rule:nonzero;"/>
            </g>
        </g>
    </g>
</svg>
