<?xml version="1.0" encoding="UTF-8"?><svg id="Layer_2" xmlns="http://www.w3.org/2000/svg" viewBox="0 0 1782.94 1121.5"><defs><style>.cls-1{fill:#7725d6;}</style></defs><g id="Layer_1-2"><path class="cls-1" d="m1223.78,374.79V0h-246.71v411.89c0,147.74-55.84,248.81-116.93,316.43-69.62,77.07-147.38,163.96-326.64,176.87H240.32v-246.68h285.19c78.53,0,143.15,11.34,194.75,84.63,26.14-21.84,49-46.98,72.94-73.49,22.16-24.51,39.83-51.34,54.15-79.85-37.39-25.72-79.83-45.43-103.97-54.67,80.11-44.85,147.41-115.36,147.41-241.95,0-80.08-25.64-142.57-76.9-193.85C749.79,35.25,648.86.01,520.68.01H0v216.29h483.83c104.14,0,161.83,41.65,161.83,115.35,0,86.52-68.9,121.79-177.85,121.79h-227.5s-240.32-.01-240.32-.01v668.05h533.5c290.51,0,437.84-185.76,507.02-263.46,88.52-99.41,183.26-255.33,183.26-483.22Z"/><path class="cls-1" d="m1223.78,897.19v-148.54c-30.94,59.45-69.79,115.77-116.77,168.55l-11.08,12.56c-28.03,31.88-66.97,75.81-118.86,119.46v72.27h805.87v-224.3h-559.16Z"/></g></svg>