<svg width="304" height="237" viewBox="0 0 304 237" fill="none" xmlns="http://www.w3.org/2000/svg">
<g clip-path="url(#clip0)" filter="url(#filter0_d)">
<path d="M138.553 228.383C152.515 228.383 163.833 224.369 163.833 219.418C163.833 214.467 152.515 210.453 138.553 210.453C124.592 210.453 113.274 214.467 113.274 219.418C113.274 224.369 124.592 228.383 138.553 228.383Z" fill="#CBCFD7"/>
<path d="M216.437 25.1853C216.437 23.8615 216.176 22.5507 215.67 21.3276C215.163 20.1046 214.421 18.9934 213.485 18.0574C212.548 17.1214 211.437 16.3789 210.214 15.8724C208.991 15.366 207.68 15.1053 206.356 15.1055H30.4628C27.7895 15.1055 25.2256 16.1674 23.3353 18.0578C21.445 19.9481 20.383 22.5119 20.383 25.1853V30.4874H216.437V25.1853Z" fill="#0E1524"/>
<path d="M20.3382 30.4883V153.521C20.3382 156.195 21.4001 158.759 23.2904 160.649C25.1807 162.54 27.7446 163.602 30.418 163.602H206.314C208.987 163.602 211.551 162.54 213.442 160.649C215.332 158.759 216.394 156.195 216.394 153.521V30.4883H20.3382Z" fill="#37445F"/>
<path d="M43.8689 108.695H34.6231V143.421H43.8689V108.695Z" fill="white"/>
<path d="M60.1045 113.203H50.8588V143.419H60.1045V113.203Z" fill="white"/>
<path d="M76.3406 122.227H67.0948V143.423H76.3406V122.227Z" fill="white"/>
<path d="M92.5753 115.461H83.3296V143.423H92.5753V115.461Z" fill="white"/>
<path d="M108.811 122.227H99.5657V143.423H108.811V122.227Z" fill="white"/>
<path d="M125.047 115.461H115.801V143.423H125.047V115.461Z" fill="white"/>
<path d="M128.654 146.352H31.2408V147.705H128.654V146.352Z" fill="white"/>
<path d="M109.198 40.9883H206.517C207.029 40.9883 207.521 41.1918 207.883 41.5541C208.245 41.9164 208.449 42.4078 208.449 42.9202V82.2628C208.449 82.5166 208.399 82.768 208.302 83.0025C208.205 83.237 208.062 83.4501 207.883 83.6296C207.703 83.8091 207.49 83.9515 207.256 84.0486C207.021 84.1457 206.77 84.1957 206.516 84.1957H109.198C108.944 84.1957 108.693 84.1457 108.458 84.0486C108.224 83.9515 108.011 83.8091 107.831 83.6296C107.652 83.4501 107.509 83.237 107.412 83.0025C107.315 82.768 107.265 82.5166 107.265 82.2628V42.9202C107.265 42.6664 107.315 42.4151 107.412 42.1806C107.509 41.9462 107.652 41.7332 107.831 41.5538C108.011 41.3743 108.224 41.2321 108.458 41.135C108.693 41.038 108.944 40.9881 109.198 40.9883Z" fill="white"/>
<path d="M205.74 64.1226V80.545C205.739 80.8972 205.598 81.2347 205.349 81.4832C205.099 81.7318 204.761 81.8711 204.409 81.8705H110.939C110.764 81.8708 110.592 81.8367 110.43 81.7702C110.269 81.7038 110.123 81.6062 109.999 81.4831C109.876 81.3601 109.778 81.2138 109.711 81.0529C109.644 80.8919 109.609 80.7193 109.609 80.545V44.4727C118.241 44.4727 122.54 47.7003 125.059 51.9397C125.224 52.2109 125.378 52.4865 125.518 52.7705C129.782 60.8375 128.497 71.895 137.873 71.895C138.206 71.897 138.539 71.8556 138.862 71.7716C139.061 71.7304 139.254 71.6673 139.439 71.5833C145.745 68.9237 144.758 50.079 155.979 50.2141C158.376 50.2439 160.166 51.162 161.579 52.629C161.714 52.7758 161.85 52.9226 161.979 53.0822C167.003 58.9769 167.073 72.1131 174.786 74.4971C177.566 75.3577 180.022 74.1918 182.445 72.2631C182.598 72.1386 182.757 72.0162 182.91 71.8801C188.039 67.6248 193.139 60.345 201.053 62.129C201.281 62.1822 201.512 62.2354 201.747 62.3067C203.153 62.7311 204.496 63.3419 205.74 64.1226Z" fill="#F1F4F9"/>
<path d="M205.74 60.8078C204.061 60.8322 202.777 61.3971 201.747 62.3109C199.84 63.9992 198.815 66.8854 197.811 69.7056C196.31 73.928 194.762 78.2854 190.233 78.2854C189.992 78.2854 189.739 78.2726 189.48 78.2492C186.529 77.9609 184.357 75.5588 182.443 72.2673C181.254 70.2301 180.164 67.845 179.057 65.4024C175.925 58.5301 172.68 51.4227 166.709 51.2535C166.639 51.2535 166.574 51.2482 166.509 51.2482C164.7 51.2482 163.223 51.9365 161.975 53.079C159.449 55.3812 157.841 59.5322 156.27 63.595C153.943 69.6077 151.541 75.829 146.117 75.9492C142.22 76.0322 140.447 74.5588 138.858 71.7684C138.245 70.6843 137.657 69.4014 136.984 67.9386C135.76 65.2535 134.229 61.9141 131.697 58.028C129.995 55.4258 127.834 53.7727 125.514 52.7705C119.261 50.0439 111.897 52.0397 109.605 52.7886V52.1695C112.065 51.3918 118.943 49.6312 125.055 51.9397C127.723 52.9471 130.243 54.7301 132.182 57.7099C134.744 61.6258 136.281 64.9886 137.518 67.6907C138.213 69.2099 138.807 70.512 139.433 71.5833C140.929 74.1684 142.573 75.446 146.105 75.3631C151.133 75.246 153.359 69.4865 155.721 63.3875C157.322 59.2471 158.954 55.0195 161.572 52.629C162.961 51.3631 164.627 50.6078 166.719 50.6673C173.066 50.8386 176.38 58.1141 179.591 65.1588C180.686 67.5492 181.746 69.8865 182.906 71.8833C184.743 75.0748 186.805 77.3886 189.536 77.6599C194.199 78.1194 195.683 73.9365 197.257 69.5046C198.233 66.7386 199.233 63.929 201.048 62.1322C202.202 60.979 203.692 60.2482 205.724 60.2173L205.74 60.8078Z" fill="#18CC55"/>
<path d="M91.066 41.5781H31.7691C30.4725 41.5781 29.4213 42.6291 29.4213 43.9255C29.4213 45.2219 30.4725 46.2728 31.7691 46.2728H91.066C92.3626 46.2728 93.4138 45.2219 93.4138 43.9255C93.4138 42.6291 92.3626 41.5781 91.066 41.5781Z" fill="white"/>
<path d="M91.066 51.7656H31.7691C30.4725 51.7656 29.4213 52.8166 29.4213 54.113C29.4213 55.4094 30.4725 56.4603 31.7691 56.4603H91.066C92.3626 56.4603 93.4138 55.4094 93.4138 54.113C93.4138 52.8166 92.3626 51.7656 91.066 51.7656Z" fill="white"/>
<path d="M91.066 61.957H31.7691C30.4725 61.957 29.4213 63.008 29.4213 64.3044C29.4213 65.6008 30.4725 66.6517 31.7691 66.6517H91.066C92.3626 66.6517 93.4138 65.6008 93.4138 64.3044C93.4138 63.008 92.3626 61.957 91.066 61.957Z" fill="white"/>
<path d="M91.066 72.1484H31.7691C30.4725 72.1484 29.4213 73.1994 29.4213 74.4958C29.4213 75.7922 30.4725 76.8432 31.7691 76.8432H91.066C92.3626 76.8432 93.4138 75.7922 93.4138 74.4958C93.4138 73.1994 92.3626 72.1484 91.066 72.1484Z" fill="white"/>
<path d="M91.066 82.3398H31.7691C30.4725 82.3398 29.4213 83.3908 29.4213 84.6872C29.4213 85.9836 30.4725 87.0345 31.7691 87.0345H91.066C92.3626 87.0345 93.4138 85.9836 93.4138 84.6872C93.4138 83.3908 92.3626 82.3398 91.066 82.3398Z" fill="white"/>
<path d="M193.761 122.084C191.356 111.434 181.846 103.477 170.463 103.477V127.365L193.761 122.084Z" fill="#18CC55"/>
<path d="M170.466 127.365V103.477C157.275 103.477 146.578 114.172 146.578 127.365C146.578 140.557 157.273 151.252 170.466 151.252C183.66 151.252 194.357 140.557 194.357 127.365C194.355 125.588 194.157 123.817 193.764 122.084L170.466 127.365Z" fill="white"/>
<path d="M170.466 146.025C180.55 146.025 188.725 137.85 188.725 127.766C188.725 117.682 180.55 109.508 170.466 109.508C160.382 109.508 152.208 117.682 152.208 127.766C152.208 137.85 160.382 146.025 170.466 146.025Z" fill="#37445F"/>
<path d="M176.214 25.4272C177.666 25.4272 178.842 24.2507 178.842 22.7995C178.842 21.3483 177.666 20.1719 176.214 20.1719C174.763 20.1719 173.587 21.3483 173.587 22.7995C173.587 24.2507 174.763 25.4272 176.214 25.4272Z" fill="white"/>
<path d="M188.758 25.4272C190.209 25.4272 191.386 24.2507 191.386 22.7995C191.386 21.3483 190.209 20.1719 188.758 20.1719C187.307 20.1719 186.13 21.3483 186.13 22.7995C186.13 24.2507 187.307 25.4272 188.758 25.4272Z" fill="white"/>
<path d="M201.301 25.4272C202.753 25.4272 203.929 24.2507 203.929 22.7995C203.929 21.3483 202.753 20.1719 201.301 20.1719C199.85 20.1719 198.674 21.3483 198.674 22.7995C198.674 24.2507 199.85 25.4272 201.301 25.4272Z" fill="white"/>
<path d="M245.117 133H222V143.221H245.117V133Z" fill="#F2C94C"/>
<path d="M254.465 143.219H231.348V153.44H254.465V143.219Z" fill="#EB5757"/>
<path d="M38.0745 174.895H14.9575V185.116H38.0745V174.895Z" fill="#18CC55"/>
<path d="M47.4224 185.113H24.3054V195.335H47.4224V185.113Z" fill="#9B51E0"/>
<path d="M129.165 215.9C129.165 215.9 128.353 218.067 127.163 219.174C120.508 216.437 114.414 212.144 112.135 210.451C112.266 209.936 112.533 209.375 112.904 208.766C113.594 207.626 115.528 204.315 116.85 202.039C117.4 203.162 118.851 205.035 122.632 206.173C121.404 209.029 125.292 211.894 127.451 213.301C129.663 214.744 129.165 215.9 129.165 215.9Z" fill="#0E1524"/>
<path d="M124.374 202.877C124.374 202.877 124.267 203.025 122.735 205.953C122.698 206.025 122.662 206.099 122.629 206.172C118.848 205.034 117.397 203.161 116.847 202.038C117.612 200.721 118.175 199.754 118.175 199.754L124.374 202.877Z" fill="#FFBEA2"/>
<path d="M127.163 219.173C126.899 219.434 126.579 219.631 126.228 219.748C124.55 220.241 114.606 214.07 113.12 213.002C112.137 212.298 111.881 211.46 112.135 210.449C114.414 212.144 120.507 216.436 127.163 219.173Z" fill="#0E2354"/>
<path d="M160.297 215.389C160.297 215.389 160.526 217.692 159.949 219.213C152.769 219.701 145.405 218.545 142.609 218.036C142.5 217.425 142.481 216.802 142.552 216.185C142.668 214.857 142.937 211.032 143.118 208.406C144.108 209.171 146.237 210.208 150.132 209.557C150.293 212.662 155.049 213.512 157.607 213.813C160.232 214.133 160.297 215.389 160.297 215.389Z" fill="#0E1524"/>
<path d="M150.241 205.835C150.241 205.835 150.212 206.015 150.135 209.318C150.135 209.4 150.135 209.481 150.14 209.561C146.246 210.212 144.116 209.175 143.126 208.41C143.233 206.89 143.306 205.773 143.306 205.773L150.241 205.835Z" fill="#FFBEA1"/>
<path d="M159.949 219.212C159.828 219.562 159.628 219.88 159.364 220.141C158.078 221.323 146.43 220.186 144.625 219.886C143.432 219.689 142.831 219.051 142.614 218.035C145.405 218.548 152.769 219.704 159.949 219.212Z" fill="#0E2354"/>
<path d="M171.708 84.8512L156.555 79.0703L148.977 106.756L162.774 113.139L171.708 84.8512Z" fill="#2C6AFA"/>
<path d="M144.535 62.7969C144.535 62.7969 144.798 71.9937 143.353 74.4894C141.907 76.9852 139.735 76.132 138.821 73.3724V64.3735L144.535 62.7969Z" fill="#FFBEA1"/>
<path d="M139.962 74.4219C139.962 74.4219 139.138 78.8506 140.331 82.0814C140.331 82.0814 139.366 83.842 137.352 83.9548C135.338 84.0676 134.315 82.4793 134.315 82.4793C134.315 82.4793 134.854 80.3782 134.315 76.9474L139.962 74.4219Z" fill="#FFB899"/>
<path d="M125.23 102.403C125.23 102.403 121.507 106.339 123.085 108.84C124.662 111.341 126.325 114.445 126.325 114.445L126.019 121.32C126.019 121.32 117.524 112.124 116.955 109.058C116.386 105.992 118.356 102.183 120.239 99.293L125.23 102.403Z" fill="#FFBEA1"/>
<path d="M139.017 148.911V168.359C139.017 168.359 135.733 182.81 131.003 193.187C126.274 203.565 125.354 204.357 125.354 204.357C125.354 204.357 119.184 204.883 116.027 200.416C116.027 200.416 125.749 175.718 125.88 166.522C126.011 157.327 123.778 143.138 125.88 135.778C126.044 134.886 126.355 134.028 126.8 133.238L136.259 134.201L139.017 148.911Z" fill="#0E1524"/>
<path d="M148.301 134.199L150.052 134.811C150.052 134.811 151.891 150.752 152.549 162.445C153.206 174.138 151.629 205.469 151.629 205.469C151.629 205.469 146.112 209.149 141.251 205.469C141.251 205.469 141.907 185.96 140.331 177.377C138.754 168.794 129.383 138.575 129.821 134.811L148.301 134.199Z" fill="#0E1524"/>
<path d="M140.331 82.0866C140.331 82.0866 148.203 85.1015 148.988 89.1739C149.773 93.2462 150.052 134.812 150.052 134.812C150.052 134.812 144.535 139.106 135.601 138.142C126.667 137.178 126.143 133.85 126.143 133.85C126.143 133.85 126.055 105.912 126.581 103.723C126.581 103.723 122.027 103.723 119.666 99.5622C119.666 99.5622 124.647 87.7164 126.453 84.4558C128.709 80.3824 134.317 81.4941 134.317 81.4941C134.317 81.4941 136.165 84.9313 140.331 82.0866Z" fill="white"/>
<path d="M144.563 88.9319C144.563 88.9319 142.316 87.6617 141.835 89.8074C141.354 91.9532 138.405 108.201 143.78 114.9C149.154 121.599 150.725 119.411 152.103 115.645C153.482 111.879 148.254 91.0776 144.563 88.9319Z" fill="white"/>
<path d="M152.021 103.196C152.021 103.196 152.72 109.036 154.016 110.787C155.312 112.539 165.856 104.284 165.856 104.284C165.856 104.284 165.65 97.2364 170.054 94.4386C174.459 91.6407 171.246 102.678 169.432 105.631C169.432 105.631 162.748 114.907 156.373 117.652C149.999 120.398 149.238 117.342 148.194 115.737C147.149 114.133 145.336 104.751 145.336 104.751L152.021 103.196Z" fill="#FFBEA1"/>
<path d="M152.355 102.882C152.355 102.882 151.027 91.8108 149.336 88.3395C147.646 84.8682 143.592 85.148 142.363 88.3395C141.134 91.531 141.333 105.426 141.333 105.426C141.333 105.426 148.08 108.775 152.355 102.882Z" fill="white"/>
<path d="M144.305 63.2299C144.305 63.2299 145.881 61.8118 146.22 59.1522C146.559 56.4927 147.1 51.7629 143.22 51.1373C139.34 50.5118 139.038 52.3416 137.317 52.5927C135.595 52.8437 126.908 52.4671 124.322 60.1842C122.531 65.531 126.416 70.7905 129.544 73.982C132.673 77.1735 132.923 77.2671 132.923 77.2671C132.923 77.2671 135.157 78.0118 137.93 76.9235L139.419 74.666C139.419 74.666 139.951 73.998 139.368 72.3256C138.785 70.6533 138.67 69.0926 139.4 68.1331C140.129 67.1735 140.953 65.4639 140.995 64.0905C141 64.0852 142.459 64.6693 144.305 63.2299Z" fill="#F2C94C"/>
<g clip-path="url(#clip1)">
<path d="M176.2 31.1115C176.311 30.5452 176.861 30.1754 177.43 30.2855L192.189 33.142L191.788 35.1925L177.03 32.336C176.461 32.2259 176.09 31.6777 176.2 31.1115Z" fill="white" fill-opacity="0.5"/>
<path d="M191.376 61.8218L191.376 30.311C191.376 27.2346 193.881 24.7407 196.97 24.7407L228.617 24.7406C230.101 24.7406 231.524 25.3275 232.573 26.3722L273.954 67.5756C276.139 69.751 276.139 73.2779 273.954 75.4533L242.307 106.964C240.123 109.139 236.581 109.139 234.396 106.964L193.015 65.7606C191.965 64.716 191.376 63.2991 191.376 61.8218ZM208.343 41.6352C210.528 39.4598 210.528 35.9329 208.343 33.7575C206.159 31.5821 202.617 31.5821 200.432 33.7575C198.247 35.9329 198.247 39.4598 200.432 41.6352C202.617 43.8106 206.159 43.8106 208.343 41.6352Z" fill="#47B0EA"/>
<path d="M221.885 54.5786L227.612 60.2808C230.048 59.1299 231.234 58.686 232.887 58.3154C235.629 57.6644 238.428 58.5003 240.483 60.5464C242.774 62.8273 243.722 66.2431 242.906 69.2023C242.53 70.5833 241.948 71.5649 240.648 73.2618L243.613 76.2135L242.078 77.7417L239.114 74.7899C235.418 78.0677 230.243 77.9875 226.872 74.5011L230.595 70.7945C231.944 72.2683 233.771 72.4617 235.577 71.268L229.681 65.398C223.756 68.212 220.338 68.0599 217.104 64.8398C213.567 61.3179 213.457 56.3962 216.779 52.5513L214.387 50.1698L215.922 48.6416L218.314 51.0231C222.674 47.8217 226.72 47.8184 230.152 50.9755L226.462 54.6496C225.183 53.441 223.525 53.4153 221.885 54.5786ZM225.163 61.1429L220.219 56.2193C218.889 57.9905 218.838 59.7681 220.154 61.0789C220.893 61.8143 221.988 62.1308 223.006 61.9486C223.584 61.8207 223.995 61.6672 225.163 61.1429ZM231.135 64.7016L236.575 70.1175C237.925 68.3593 237.8 66.4139 236.275 64.896C234.959 63.5852 233.519 63.5007 231.135 64.7016Z" fill="#E6E6E6"/>
<path d="M233.562 101.211L232.573 102.195L236.034 105.642L237.023 104.657L233.562 101.211Z" fill="white" fill-opacity="0.5"/>
<path d="M235.54 99.2419L234.551 100.227L238.012 103.673L239.001 102.688L235.54 99.2419Z" fill="white" fill-opacity="0.5"/>
<path d="M237.518 97.2731L236.529 98.2578L239.99 101.704L240.979 100.72L237.518 97.2731Z" fill="white" fill-opacity="0.5"/>
<path d="M239.496 95.3004L238.507 96.2852L241.968 99.7316L242.957 98.7469L239.496 95.3004Z" fill="white" fill-opacity="0.5"/>
<path d="M241.473 93.3317L240.484 94.3164L243.946 97.7629L244.935 96.7782L241.473 93.3317Z" fill="white" fill-opacity="0.5"/>
<path d="M243.451 91.3629L242.462 92.3477L245.924 95.7941L246.912 94.8094L243.451 91.3629Z" fill="white" fill-opacity="0.5"/>
<path d="M245.429 89.3942L244.44 90.3789L247.902 93.8254L248.891 92.8407L245.429 89.3942Z" fill="white" fill-opacity="0.5"/>
<path d="M247.407 87.4254L246.418 88.4102L249.88 91.8566L250.869 90.8719L247.407 87.4254Z" fill="white" fill-opacity="0.5"/>
<path d="M249.385 85.4567L248.396 86.4414L251.858 89.8879L252.847 88.9032L249.385 85.4567Z" fill="white" fill-opacity="0.5"/>
<path d="M251.363 83.484L250.374 84.4688L253.836 87.9152L254.825 86.9305L251.363 83.484Z" fill="white" fill-opacity="0.5"/>
<path d="M253.341 81.5153L252.352 82.5L255.813 85.9465L256.802 84.9618L253.341 81.5153Z" fill="white" fill-opacity="0.5"/>
<path d="M255.319 79.5465L254.33 80.5312L257.791 83.9777L258.78 82.993L255.319 79.5465Z" fill="white" fill-opacity="0.5"/>
<path d="M257.297 77.5778L256.308 78.5625L259.769 82.009L260.758 81.0243L257.297 77.5778Z" fill="white" fill-opacity="0.5"/>
<path d="M259.275 75.609L258.286 76.5938L261.747 80.0402L262.736 79.0555L259.275 75.609Z" fill="white" fill-opacity="0.5"/>
<path d="M261.253 73.6403L260.264 74.625L263.725 78.0715L264.714 77.0868L261.253 73.6403Z" fill="white" fill-opacity="0.5"/>
<path d="M263.231 71.6676L262.242 72.6523L265.703 76.0988L266.692 75.1141L263.231 71.6676Z" fill="white" fill-opacity="0.5"/>
<path d="M265.209 69.6989L264.22 70.6836L267.681 74.1301L268.67 73.1454L265.209 69.6989Z" fill="white" fill-opacity="0.5"/>
<path d="M267.186 67.7301L266.197 68.7148L269.659 72.1613L270.647 71.1766L267.186 67.7301Z" fill="white" fill-opacity="0.5"/>
<path d="M269.164 65.7614L268.175 66.7461L271.637 70.1926L272.625 69.2079L269.164 65.7614Z" fill="white" fill-opacity="0.5"/>
<path d="M182.092 15.4958C182.502 15.088 183.166 15.088 183.575 15.4958L201.377 33.2207C201.786 33.6285 201.786 34.2898 201.377 34.6977C200.967 35.1056 200.303 35.1056 199.893 34.6977L182.092 16.9729C181.682 16.565 181.682 15.9037 182.092 15.4958Z" fill="white"/>
</g>
</g>
<defs>
<filter id="filter0_d" x="0" y="0" width="308" height="242.894" filterUnits="userSpaceOnUse" color-interpolation-filters="sRGB">
<feFlood flood-opacity="0" result="BackgroundImageFix"/>
<feColorMatrix in="SourceAlpha" type="matrix" values="0 0 0 0 0 0 0 0 0 0 0 0 0 0 0 0 0 0 127 0"/>
<feOffset dy="4"/>
<feGaussianBlur stdDeviation="2"/>
<feColorMatrix type="matrix" values="0 0 0 0 0 0 0 0 0 0 0 0 0 0 0 0 0 0 0.25 0"/>
<feBlend mode="normal" in2="BackgroundImageFix" result="effect1_dropShadow"/>
<feBlend mode="normal" in="SourceGraphic" in2="effect1_dropShadow" result="shape"/>
</filter>
<clipPath id="clip0">
<rect width="300" height="234.894" fill="white" transform="translate(4)"/>
</clipPath>
<clipPath id="clip1">
<rect width="94" height="100" fill="white" transform="translate(176 109) rotate(-90)"/>
</clipPath>
</defs>
</svg>
