<svg viewBox="0 0 141 23" version="1.1" xmlns="http://www.w3.org/2000/svg" xmlns:xlink="http://www.w3.org/1999/xlink" xml:space="preserve" style="fill-rule:evenodd;clip-rule:evenodd;stroke-linejoin:round;stroke-miterlimit:2;">
    <path id="logo-a1" d="M0.6,10.5C1.1,7.9 3.4,6.1 6.6,6.1C10.3,6.1 13.2,7.7 13.2,12.7L13.2,22L10,22L9.6,20C8.5,21.4 7,22.3 4.8,22.3C2.1,22.3 0,20.6 0,17.5C0,14.4 2.8,12.4 6.7,12.4L9.3,12.4L9.3,11.7C9.3,9.9 8,9.4 6.5,9.4C5.4,9.4 4.3,9.8 3.8,11.2L0.6,10.5ZM5.7,19C7.5,19 9.3,17.8 9.3,15.8L9.3,15.5L6.8,15.5C5.1,15.4 4.1,16.1 4.1,17.5C4.1,18.2 4.7,19 5.7,19Z" style="fill:rgb(193,193,193);fill-rule:nonzero;"/>
    <path id="logo-a2" d="M76,10.5C76.5,7.9 78.8,6.1 82,6.1C85.7,6.1 88.6,7.7 88.6,12.7L88.6,22L85.4,22L85,20C83.9,21.4 82.4,22.3 80.2,22.3C77.5,22.3 75.4,20.6 75.4,17.5C75.4,14.4 78.2,12.4 82.1,12.4L84.7,12.4L84.7,11.7C84.7,9.9 83.4,9.4 81.9,9.4C80.8,9.4 79.7,9.8 79.2,11.2L76,10.5ZM81.1,19C82.9,19 84.7,17.8 84.7,15.8L84.7,15.5L82.1,15.5C80.4,15.5 79.4,16.1 79.4,17.5C79.5,18.2 80.1,19 81.1,19Z" style="fill:rgb(193,193,193);fill-rule:nonzero;"/>
    <path id="logo-r" d="M92.1,22.1L92.1,6.3L96,6.3L96,8.9C97.1,7 98.9,6.1 100.6,6.1C101.3,6.1 101.9,6.2 102.5,6.4L101.8,10C101.3,9.7 100.8,9.5 100.2,9.5C97.9,9.5 96,11.4 96,16.4L96,22L92.1,22.1Z" style="fill:rgb(193,193,193);fill-rule:nonzero;"/>
    <path id="logo-d" d="M110.8,6.1C112.4,6.1 113.9,6.9 114.6,7.8L114.6,0L118.5,0L118.5,22.1L114.6,22.1L114.6,20.5C114.1,21.3 112.7,22.4 110.8,22.4C106.1,22.4 103.7,19.1 103.7,14.3C103.7,9.5 106.1,6.1 110.8,6.1ZM111.4,19C113.4,19 115,17.3 115,14.2C115,11.1 113.4,9.4 111.4,9.4C109.4,9.4 107.8,11.1 107.8,14.2C107.8,17.3 109.4,19 111.4,19Z" style="fill:rgb(193,193,193);fill-rule:nonzero;"/>
    <path id="logo-s" d="M132.5,8.6L130.2,10.7C129.5,9.7 128.4,9.3 127.6,9.3C126.8,9.3 126.1,9.8 126.1,10.6C126.1,11.3 126.7,11.8 127.6,12.1C129.8,12.9 133.3,13.6 133.3,16.9C133.3,19.8 131.1,22.1 127.7,22.1C124.4,22.1 122.2,19.8 121.5,17.9L124.6,16.2C125.2,17.7 126.2,18.8 127.8,18.8C129,18.8 129.8,18.2 129.8,17.1C129.8,15.8 127.8,15.5 125.9,14.7C124.2,14 122.7,12.9 122.7,10.5C122.7,8.1 124.7,5.9 127.7,5.9C129.7,6 131.6,7.1 132.5,8.6Z" style="fill:rgb(193,193,193);fill-rule:nonzero;"/>
    <path id="logo-w2" d="M51.9,6.3L49.1,17.2L46.4,6.3L42.8,6.3L40.2,17.2L38,10.9L37.7,11.6L36.5,15.7L38.5,22.1L41.9,22.1L44.6,11.9L47.3,22.1L50.8,22.1L55.8,6.3L51.9,6.3Z" style="fill:rgb(193,193,193);fill-rule:nonzero;"/>
    <path id="logo-w3" d="M70.6,6.3L67.8,17.2L65.1,6.3L61.5,6.3L58.9,17.2L56.7,10.9L56.4,11.6L55.1,15.7L57.2,22.1L60.6,22.1L63.3,11.9L66,22.1L69.4,22.1L74.5,6.3L70.6,6.3Z" style="fill:rgb(193,193,193);fill-rule:nonzero;"/>
    <path id="logo-w1" d="M37.1,6.3L32.1,22L28.7,22L26,11.9L23.3,22.1L19.9,22.1L14.9,6.4L18.8,6.4L21.6,17.2L24.3,6.4L27.9,6.4L30.6,17.2L33.4,6.4L37.1,6.3Z" style="fill:rgb(193,193,193);fill-rule:nonzero;"/>
    <path id="logo-p" d="M138.4,17C139.9,17 141,18.1 141,19.6C141,21.1 139.9,22.2 138.4,22.2C136.9,22.2 135.8,21.1 135.8,19.6C135.8,18.1 136.9,17 138.4,17Z" style="fill:rgb(193,193,193);fill-rule:nonzero;"/>
</svg>
