<svg viewBox="0 0 485 87" version="1.1" xmlns="http://www.w3.org/2000/svg" xmlns:xlink="http://www.w3.org/1999/xlink" xml:space="preserve" style="fill-rule:evenodd;clip-rule:evenodd;stroke-linejoin:round;stroke-miterlimit:2;">
    <g transform="matrix(1,0,0,1,-7.836,-206.893)">
        <g transform="matrix(1,0,0,1,125.108,232.952)">
            <path d="M0,31.536C-5.143,31.536 -8.595,28.017 -8.595,22.738C-8.595,17.46 -5.143,13.941 0,13.941C5.144,13.941 8.595,17.46 8.595,22.738C8.595,27.949 5.144,31.536 0,31.536M8.595,9.474L7.986,8.798C5.617,6.091 2.233,4.669 -2.098,4.669C-11.234,4.669 -18.407,12.587 -18.407,22.671C-18.407,32.754 -11.234,40.672 -2.098,40.672C2.233,40.672 5.617,39.251 7.986,36.544L8.595,35.867L8.595,39.724L18.34,39.724L18.34,-9.136L8.595,-5.617L8.595,9.474Z" style="fill:rgb(193,193,193);fill-rule:nonzero;"/>
        </g>
        <g transform="matrix(-1,0,0,1,153.735,234.911)">
            <path d="M0.001,-11.911C3.182,-11.911 5.956,-9.204 5.956,-5.955C5.956,-2.707 3.249,0 0.001,0C-3.18,0 -5.955,-2.707 -5.955,-5.955C-5.955,-9.204 -3.18,-11.911 0.001,-11.911" style="fill:rgb(193,193,193);fill-rule:nonzero;"/>
        </g>
        <g transform="matrix(-1,0,0,1,307.474,11.245)">
            <rect x="148.864" y="227.324" width="9.746" height="34.107" style="fill:rgb(193,193,193);"/>
        </g>
        <g transform="matrix(-1,0,0,1,422.245,11.242)">
            <rect x="206.25" y="227.325" width="9.745" height="34.108" style="fill:rgb(193,193,193);"/>
        </g>
        <g transform="matrix(1,0,0,1,231.496,241.613)">
            <path d="M0,18.949L0,6.294L5.752,6.294L9.407,-3.045L0,-3.045L0,-12.587L-9.745,-8.73L-9.745,19.016C-9.745,27.611 -5.278,31.536 4.399,31.536C6.091,31.536 7.918,31.401 9.948,31.198L5.414,22.333C1.895,22.333 0,22.264 0,18.949" style="fill:rgb(193,193,193);fill-rule:nonzero;"/>
        </g>
        <g transform="matrix(1,0,0,1,259.578,246.751)">
            <path d="M0,17.731C-5.145,17.731 -8.595,14.211 -8.595,8.933C-8.595,3.654 -5.145,0.135 0,0.135C5.142,0.135 8.593,3.654 8.593,8.933C8.593,14.144 5.142,17.731 0,17.731M8.593,-4.331L7.984,-5.008C5.616,-7.715 2.232,-9.136 -2.098,-9.136C-11.234,-9.136 -18.408,-1.218 -18.408,8.865C-18.408,18.949 -11.234,26.867 -2.098,26.867C2.232,26.867 5.616,25.445 7.984,22.739L8.593,22.062L8.593,25.919L18.338,25.919L18.338,-8.188L8.593,-8.188L8.593,-4.331Z" style="fill:rgb(193,193,193);fill-rule:nonzero;"/>
        </g>
        <g transform="matrix(1,0,0,1,283.197,222.731)">
            <path d="M0,49.943L9.812,49.943L9.812,0L0,3.451L0,49.943Z" style="fill:rgb(193,193,193);fill-rule:nonzero;"/>
        </g>
        <g transform="matrix(1,0,0,1,311.551,272.95)">
            <path d="M0,-44.259L-9.813,-40.74L-9.882,-34.378L-13.196,-34.378L-13.196,-25.039L-9.882,-25.039L-9.882,-12.384C-9.882,-7.986 -9.07,-5.008 -7.242,-3.046C-5.278,-0.948 -2.165,0 2.639,0C3.992,0 5.412,-0.068 7.038,-0.203L7.038,-9.001C6.224,-8.933 5.616,-8.933 5.074,-8.933C3.314,-8.933 2.098,-9.136 1.286,-9.61C0.337,-10.151 -0.137,-11.031 -0.137,-12.384L-0.137,-25.039L7.038,-25.039L7.038,-34.378L-0.137,-34.378L0,-44.259Z" style="fill:rgb(193,193,193);fill-rule:nonzero;"/>
        </g>
        <g transform="matrix(1,0,0,1,353.777,258.866)">
            <path d="M0,-6.498L0.135,-6.904C1.15,-10.626 3.993,-12.656 8.052,-12.656C11.91,-12.656 14.753,-10.558 15.769,-6.904L15.902,-6.498L0,-6.498ZM8.122,-21.25C-2.436,-21.25 -10.082,-13.671 -10.082,-3.25C-10.082,7.375 -2.301,14.752 8.866,14.752C15.228,14.752 20.168,12.519 23.55,8.052L15.769,3.586C14.212,5.21 11.707,6.157 9.001,6.157C4.467,6.157 1.558,4.465 0.338,1.082L0.204,0.608L25.106,0.608C25.31,-0.61 25.446,-1.895 25.446,-3.25C25.446,-13.536 18.001,-21.25 8.122,-21.25" style="fill:rgb(193,193,193);fill-rule:nonzero;"/>
        </g>
        <g transform="matrix(1,0,0,1,404.601,272.739)">
            <path d="M0,-35.123C-4.263,-35.123 -7.781,-33.634 -9.678,-30.995L-10.286,-30.183L-10.286,-34.04L-20.031,-30.589L-20.031,-0.068L-10.286,-0.068L-10.286,-18.678C-10.286,-23.415 -7.781,-26.19 -3.451,-26.19C-0.338,-26.19 2.91,-24.431 2.91,-19.491L2.91,0L12.654,0L12.654,-21.047C12.722,-30.792 6.294,-35.123 0,-35.123" style="fill:rgb(193,193,193);fill-rule:nonzero;"/>
        </g>
        <g transform="matrix(1,0,0,1,441.209,233.961)">
            <path d="M0,30.521C-5.144,30.521 -8.595,27.002 -8.595,21.724C-8.595,16.445 -5.144,12.926 0,12.926C5.143,12.926 8.594,16.445 8.594,21.724C8.66,26.935 5.209,30.521 0,30.521M8.663,8.46L8.052,7.783C5.684,5.076 2.3,3.655 -2.03,3.655C-11.167,3.655 -18.34,11.573 -18.34,21.656C-18.34,31.74 -11.167,39.657 -2.03,39.657C2.3,39.657 5.684,38.236 8.052,35.529L8.663,34.852L8.663,38.709L18.407,38.709L18.407,-9.136L8.663,-5.684L8.663,8.46Z" style="fill:rgb(193,193,193);fill-rule:nonzero;"/>
        </g>
        <g transform="matrix(1,0,0,1,347.01,272.467)">
            <path d="M0,-34.581C-0.946,-34.784 -1.827,-34.852 -2.773,-34.852L-2.91,-34.852C-7.105,-34.852 -10.42,-33.498 -12.384,-30.927L-12.992,-30.182L-12.992,-33.769L-13.196,-33.701L-13.196,-33.836L-22.941,-33.431L-22.941,0.271L-12.992,0.271L-12.992,-18.407C-12.992,-23.077 -10.624,-25.783 -6.495,-25.919C-5.142,-29.303 -2.91,-32.28 0,-34.581" style="fill:rgb(193,193,193);fill-rule:nonzero;"/>
        </g>
        <g transform="matrix(1,0,0,1,182.362,266.241)">
            <path d="M0,-1.759C-5.144,-1.759 -8.595,-5.279 -8.595,-10.557C-8.595,-15.836 -5.144,-19.355 0,-19.355C5.143,-19.355 8.594,-15.836 8.594,-10.557C8.594,-5.346 5.143,-1.759 0,-1.759M8.594,-23.821L7.985,-24.498C5.617,-27.205 2.233,-28.626 -2.098,-28.626C-11.234,-28.626 -18.408,-20.708 -18.408,-10.625C-18.408,-0.541 -11.234,7.377 -2.098,7.377C2.098,7.377 5.481,6.023 7.85,3.451L8.459,2.775L8.459,9.204C8.459,14.346 4.06,17.46 -0.136,17.46C-4.196,17.46 -7.512,15.429 -8.73,12.181L-9.001,11.437L-17.798,14.618L-17.596,15.362C-15.024,22.333 -8.188,26.867 -0.136,26.867C10.421,26.867 18.407,19.287 18.407,9.271L18.407,-27.678L8.662,-27.678L8.662,-23.821L8.594,-23.821Z" style="fill:rgb(193,193,193);fill-rule:nonzero;"/>
        </g>
        <g transform="matrix(-1,0,0,1,211.259,234.913)">
            <path d="M-0.001,-11.911C3.18,-11.911 5.955,-9.204 5.955,-5.955C5.955,-2.707 3.248,0 -0.001,0C-3.182,0 -5.956,-2.707 -5.956,-5.955C-5.956,-9.204 -3.249,-11.911 -0.001,-11.911" style="fill:rgb(193,193,193);fill-rule:nonzero;"/>
        </g>
        <g transform="matrix(1,0,0,1,480.32,259.944)">
            <path d="M0,-8.459C-2.909,-9.204 -5.211,-9.813 -5.211,-11.504C-5.211,-12.925 -3.992,-13.805 -1.961,-13.805C-0.337,-13.805 0.949,-13.264 1.962,-12.046L10.965,-15.227L11.166,-15.294C8.393,-19.761 3.655,-22.265 -1.961,-22.265C-8.595,-22.265 -15.294,-18.813 -15.294,-11.166C-15.294,-3.722 -8.458,-1.827 -3.518,-0.406C-0.541,0.406 1.828,1.083 1.828,2.707C1.828,3.857 1.15,5.211 -2.301,5.211C-4.601,5.211 -6.428,4.399 -7.579,2.774L-16.783,6.023L-16.851,6.023C-14.278,11.166 -9.271,13.806 -2.301,13.806C4.534,13.806 11.844,10.895 11.844,2.707C11.91,-5.346 5.008,-7.173 0,-8.459" style="fill:rgb(193,193,193);fill-rule:nonzero;"/>
        </g>
        <path d="M7.971,206.893L93.443,206.893C93.511,206.893 93.578,206.959 93.578,207.027L93.578,292.499C93.646,292.635 93.578,292.702 93.443,292.702L7.971,292.702C7.903,292.702 7.836,292.635 7.836,292.567L7.836,207.027C7.836,206.959 7.903,206.893 7.971,206.893ZM41.671,269.629L22.993,269.629C22.654,269.629 22.384,269.9 22.384,270.238L22.384,277.479C22.384,277.817 22.654,278.088 22.993,278.088L41.671,278.088C42.009,278.088 42.28,277.817 42.28,277.479L42.28,270.238C42.213,269.9 41.942,269.629 41.671,269.629ZM78.486,244.179L56.357,244.179L56.357,222.05C56.357,221.711 56.086,221.441 55.748,221.441L45.732,221.441C45.394,221.441 45.123,221.711 45.123,222.05L45.123,244.179L22.994,244.179C22.655,244.179 22.385,244.45 22.385,244.788L22.385,254.871C22.385,255.21 22.655,255.481 22.994,255.481L45.123,255.481L45.123,277.61C45.123,277.949 45.394,278.219 45.732,278.219L55.816,278.219C56.154,278.219 56.424,277.949 56.424,277.61L56.424,255.413L78.554,255.413C78.892,255.413 79.163,255.142 79.163,254.804L79.163,244.788C79.028,244.45 78.757,244.179 78.486,244.179ZM22.993,267.191L33.144,267.191C33.483,267.191 33.753,266.92 33.753,266.583L33.753,259.273C33.753,258.935 33.483,258.665 33.144,258.665L22.993,258.665C22.655,258.665 22.384,258.935 22.384,259.273L22.384,266.514C22.384,266.92 22.655,267.191 22.993,267.191Z" style="fill:rgb(193,193,193);fill-rule:nonzero;"/>
    </g>
</svg>
