<svg viewBox="0 0 512 126" version="1.1" xmlns="http://www.w3.org/2000/svg" xmlns:xlink="http://www.w3.org/1999/xlink" xml:space="preserve" style="fill-rule:evenodd;clip-rule:evenodd;stroke-linejoin:round;stroke-miterlimit:2;">
    <g>
        <path d="M156.434,50.322C162.293,50.322 167.043,45.57 167.043,39.709C167.043,33.847 162.293,29.096 156.434,29.096C150.573,29.096 145.823,33.847 145.823,39.709C145.823,45.57 150.573,50.322 156.434,50.322ZM506.594,86.583C504.98,85.448 503.733,85.26 502.7,87.464C484.88,126.06 454.849,106.8 457.833,108.495C464.494,105.448 482.013,91.398 479.365,71.998C477.757,60.142 467.581,54.883 456.78,56.766C437.926,60.053 430.99,80.389 434.521,98.393C435.139,101.485 436.243,104.035 437.346,106.533C416.04,123.859 407.579,91.022 406.619,87.099C406.581,86.889 423.07,73.145 427.656,40.394C432.463,6.069 421.513,-0.181 410.315,0.014C389.595,0.375 383.997,43.666 391.519,79.746C390.889,79.91 387.957,81.534 383.246,81.715C379.856,71.049 365.371,61.699 361.58,65.302C352.092,74.315 363.881,91.936 372.176,93.318C367.193,124.009 336.03,116.407 341.831,77.957C351.979,59.112 359.697,31.091 358.32,14.175C357.832,8.186 353.404,0.162 343.389,0.559C324.129,1.321 322.035,44.624 324.293,75.358C324.181,74.601 323.109,79.092 315.216,81.325C313.349,70.962 296.663,60.56 292.735,65.561C285.382,74.921 298.124,91.61 304.161,92.774C299.178,123.465 268.016,115.863 273.817,77.412C283.965,58.568 291.682,30.547 290.305,13.631C289.817,7.642 285.39,-0.383 275.374,0.014C256.114,0.777 254.02,44.08 256.278,74.813C256.165,74.045 255.068,78.683 246.853,80.88C246.578,67.435 229.831,61.271 225.808,65.561C218.638,73.207 227.45,88.897 235.602,92.774C230.619,123.465 199.457,115.863 205.258,77.412C215.406,58.568 223.124,30.547 221.746,13.631C221.259,7.642 216.831,-0.383 206.816,0.014C187.555,0.777 186.006,46.257 188.264,76.99C181.92,104.171 160.645,138.115 163.409,70.118C163.682,65.349 163.98,63.537 161.602,61.751C159.82,60.363 155.768,61.03 153.553,61.086C150.861,61.194 150.186,62.769 149.591,65.15C148.205,71.298 147.956,77.258 147.758,85.39C147.628,89.194 147.323,90.969 145.859,96.156C144.395,101.342 136.049,110.821 131.478,109.237C125.139,107.055 127.217,89.158 128.406,76.861C129.396,67.143 126.227,62.779 118.104,61.192C113.349,60.201 110.46,60.353 105.508,58.792C100.825,57.316 99.766,48.458 89.779,51.41C84.315,53.026 87.827,64.601 86.514,73.181C80.059,115.381 66.628,116.54 60.397,96.04C88.46,27.31 68.515,0.214 56.841,0.214C44.681,0.214 30.781,8.59 36.667,62.182C33.805,61.347 32.925,60.897 29.792,60.897C12.073,60.897 0,75.221 0,92.891C0,110.561 12.073,124.886 29.792,124.886C40.253,124.886 47.596,120.129 53.158,112.77C56.787,117.967 61.206,124.966 69.287,124.651C93.374,123.713 100.379,74.304 101.206,71.548C103.781,71.945 106.217,72.696 108.595,73.093C112.557,73.688 112.844,75.256 112.755,79.241C111.706,112.845 117.906,124.61 131.972,124.61C139.809,124.61 146.794,116.911 151.606,111.405C155.2,118.823 160.927,124.384 168.61,124.61C187.227,125.073 194.355,95.401 193.705,99.305C193.195,102.369 199.745,124.443 218.911,124.523C242.652,124.623 247.065,98.515 247.592,94.142C247.657,93.271 247.686,93.363 247.592,94.142C247.586,94.223 247.579,94.309 247.573,94.407C255.11,93.005 258.999,88.964 258.999,88.964C258.999,88.964 265.051,124.929 287.47,124.523C310.748,124.102 315.138,100.502 315.715,95.9C315.791,94.808 315.836,94.936 315.715,95.9C315.712,95.945 315.709,95.985 315.706,96.035C324.659,92.778 327.014,89.509 327.014,89.509C327.014,89.509 331.824,124.759 355.484,125.067C376.568,125.343 384.382,103.752 384.428,94.715C387.984,94.753 394.562,92.606 394.407,92.483C394.407,92.483 402.131,123.303 423.697,124.886C433.824,125.629 441.42,119.188 445.75,116.25C455.926,124.491 489.811,135.017 511.207,98.742C514.226,93.536 507.734,87.386 506.594,86.583ZM28.937,112.919C18.599,112.919 11.97,103.36 11.97,93.053C11.97,82.747 18.055,73.188 28.393,73.188C33.045,73.188 35.632,73.7 39.256,76.851C39.913,79.44 41.775,85.412 42.681,88.124C43.895,91.753 45.339,94.842 46.795,98.204C44.714,106.827 37.896,112.919 28.937,112.919ZM54.129,77.154C53.699,76.469 53.788,76.89 53.308,76.243C51.413,71.088 47.761,59.582 47.338,46.512C46.86,31.729 49.324,14.4 56.588,14.4C61.51,14.4 66.741,49.52 54.129,77.154ZM199.69,61.751C198.524,52.978 198.463,13.868 207.852,14.945C213.036,17.045 204.565,53.95 199.69,61.751ZM268.249,61.751C267.083,52.978 267.022,13.868 276.411,14.945C281.595,17.045 273.124,53.95 268.249,61.751ZM336.264,62.296C335.097,53.522 335.037,14.412 344.425,15.489C349.609,17.589 341.138,54.495 336.264,62.296ZM411.352,12.655C419.936,11.766 419.582,49.252 402.352,72.918C400.13,64.364 396.723,15.593 411.352,12.655ZM447.433,93.318C444.675,79.391 451.799,70.244 459.143,69.241C461.71,68.831 465.43,70.494 466.172,73.603C467.392,79.462 465.995,88.152 449.558,99.18C449.582,99.274 448.047,96.419 447.433,93.318Z" style="fill:rgb(193,193,193);fill-rule:nonzero;"/>
    </g>
</svg>
